<svg xmlns="http://www.w3.org/2000/svg" width="22" height="22" viewBox="0 0 22 22">
    <g fill="none" fill-rule="evenodd">
        <path d="M-3-3h28v28H-3z"/>
        <path fill="#788195" fill-rule="nonzero" d="M21.323 3.676L18.107.726a.988.988 0 0 0-1.45.126l-.096.124a1 1 0 0 0 .116 1.348l3.216 2.95a.988.988 0 0 0 1.45-.126l.096-.124a1 1 0 0 0-.116-1.348zM5.443.98L5.348.853A.984.984 0 0 0 3.9.725L.678 3.673a1 1 0 0 0-.116 1.349l.096.125a.99.99 0 0 0 1.453.125l3.214-2.947A1 1 0 0 0 5.444.98zM9.819 6A.818.818 0 0 0 9 6.818v5.406a1 1 0 0 0 .472.85l4.025 2.5a.787.787 0 0 0 1.094-.269.821.821 0 0 0-.278-1.117l-3.677-2.256V6.818A.818.818 0 0 0 9.818 6zM11 2C5.478 2 1 6.478 1 12s4.467 10 10 10c5.522 0 10-4.478 10-10S16.522 2 11 2zm0 18c-4.423 0-8-3.577-8-8s3.577-8 8-8 8 3.577 8 8-3.577 8-8 8z" opacity=".8"/>
    </g>
</svg>
