<svg xmlns="http://www.w3.org/2000/svg" width="22" height="22" viewBox="0 0 22 22">
    <g fill="none" fill-rule="evenodd">
        <path d="M-3-3h28v28H-3z"/>
        <path fill="#788195" fill-rule="nonzero" d="M5.444.98L5.347.853A.984.984 0 0 0 3.9.725L.678 3.673a1 1 0 0 0-.116 1.349l.096.125a.99.99 0 0 0 1.453.125l3.214-2.947A1 1 0 0 0 5.444.98zm15.88 2.696L18.106.726a.988.988 0 0 0-1.45.126l-.096.124a1 1 0 0 0 .116 1.348l3.216 2.95a.988.988 0 0 0 1.45-.126l.096-.124a1 1 0 0 0-.116-1.348zM11 2C5.478 2 1 6.478 1 12s4.467 10 10 10c5.522 0 10-4.478 10-10S16.522 2 11 2zm0 18c-4.423 0-8-3.577-8-8s3.577-8 8-8 8 3.577 8 8-3.577 8-8 8zm0-12a1 1 0 0 0-1 1v2H8a1 1 0 0 0 0 2h2v2a1 1 0 0 0 2 0v-2h2a1 1 0 0 0 0-2h-2V9a1 1 0 0 0-1-1z" opacity=".8"/>
    </g>
</svg>
