<svg xmlns="http://www.w3.org/2000/svg" width="24" height="20" viewBox="0 0 24 20">
  <path fill="#788195" fill-opacity=".497" fill-rule="nonzero" d="M12.003 4.208c3.01 0 5.457 2.36 5.457 5.266 0 .682-.139 1.328-.39 1.927l3.186 3.073a12.475 12.475 0 0 0 3.744-5c-1.89-4.62-6.55-7.896-12.008-7.896a13.27 13.27 0 0 0-4.344.734l2.357 2.277a5.53 5.53 0 0 1 1.998-.38zm-10.91-2.87l2.49 2.402.504.484A12.434 12.434 0 0 0 0 9.474c1.885 4.62 6.545 7.896 12.003 7.896 1.692 0 3.304-.318 4.777-.886l.46.443L20.439 20l1.387-1.339L2.475 0 1.092 1.339zm6.03 5.818l1.693 1.63a2.905 2.905 0 0 0-.086.683c0 1.745 1.462 3.156 3.273 3.156.24 0 .482-.031.707-.083l1.692 1.63a5.532 5.532 0 0 1-2.4.557c-3.01 0-5.457-2.36-5.457-5.265 0-.823.22-1.6.578-2.308zm4.703-.817l3.438 3.317.022-.166c0-1.745-1.462-3.157-3.273-3.157l-.187.006z"/>
</svg>
