<svg width="20" height="20" viewBox="0 0 20 20" fill="none" xmlns="http://www.w3.org/2000/svg">
<path d="M0 2.22222V5.55556C0 6.16667 0.5 6.66667 1.11111 6.66667C1.72222 6.66667 2.22222 6.16667 2.22222 5.55556V3.33333C2.22222 2.72222 2.72222 2.22222 3.33333 2.22222H5.55556C6.16667 2.22222 6.66667 1.72222 6.66667 1.11111C6.66667 0.5 6.16667 0 5.55556 0H2.22222C1 0 0 1 0 2.22222ZM1.11111 13.3333C0.5 13.3333 0 13.8333 0 14.4444V17.7778C0 19 1 20 2.22222 20H5.55556C6.16667 20 6.66667 19.5 6.66667 18.8889C6.66667 18.2778 6.16667 17.7778 5.55556 17.7778H3.33333C2.72222 17.7778 2.22222 17.2778 2.22222 16.6667V14.4444C2.22222 13.8333 1.72222 13.3333 1.11111 13.3333ZM17.7778 16.6667C17.7778 17.2778 17.2778 17.7778 16.6667 17.7778H14.4444C13.8333 17.7778 13.3333 18.2778 13.3333 18.8889C13.3333 19.5 13.8333 20 14.4444 20H17.7778C19 20 20 19 20 17.7778V14.4444C20 13.8333 19.5 13.3333 18.8889 13.3333C18.2778 13.3333 17.7778 13.8333 17.7778 14.4444V16.6667ZM17.7778 0H14.4444C13.8333 0 13.3333 0.5 13.3333 1.11111C13.3333 1.72222 13.8333 2.22222 14.4444 2.22222H16.6667C17.2778 2.22222 17.7778 2.72222 17.7778 3.33333V5.55556C17.7778 6.16667 18.2778 6.66667 18.8889 6.66667C19.5 6.66667 20 6.16667 20 5.55556V2.22222C20 1 19 0 17.7778 0Z" fill="#407EFF"/>
</svg>
