<svg xmlns="http://www.w3.org/2000/svg" width="18" height="19" viewBox="0 0 18 19">
    <g fill="none" fill-rule="evenodd" opacity=".8">
        <path d="M-3-3h24v24H-3z"/>
        <path stroke="#407EFF" stroke-linecap="round" stroke-linejoin="round" stroke-width="2" d="M6.564 15.329C2.59 16.521 2.59 13.342 1 12.944m11.128 4.77v-3.077a2.679 2.679 0 0 0-.747-2.074c2.496-.278 5.119-1.224 5.119-5.564 0-1.11-.427-2.177-1.192-2.981a4.03 4.03 0 0 0-.072-2.997s-.938-.278-3.108 1.177a10.635 10.635 0 0 0-5.564 0C4.394.743 3.456 1.02 3.456 1.02a4.03 4.03 0 0 0-.071 2.997 4.324 4.324 0 0 0-1.193 3.005c0 4.308 2.623 5.254 5.12 5.564a2.679 2.679 0 0 0-.748 2.05v3.077"/>
    </g>
</svg>
