<svg xmlns="http://www.w3.org/2000/svg" width="24" height="24" viewBox="0 0 24 24">
    <g fill="none" fill-rule="evenodd">
        <path d="M-2-3h28v28H-2z"/>
        <path fill="#788195" fill-rule="nonzero" d="M14 14h-4v-4h4v4zm10-4.222v-.445a1 1 0 0 0-1-1h-2.444V5.89c0-1.345-1.1-2.445-2.445-2.445h-2.444V1a1 1 0 0 0-1-1h-.445a1 1 0 0 0-1 1v2.444h-2.444V1a1 1 0 0 0-1-1h-.445a1 1 0 0 0-1 1v2.444H5.89A2.452 2.452 0 0 0 3.444 5.89v2.444H1a1 1 0 0 0-1 1v.445a1 1 0 0 0 1 1h2.444v2.444H1a1 1 0 0 0-1 1v.445a1 1 0 0 0 1 1h2.444v2.444c0 1.345 1.1 2.445 2.445 2.445h2.444V23a1 1 0 0 0 1 1h.445a1 1 0 0 0 1-1v-2.444h2.444V23a1 1 0 0 0 1 1h.445a1 1 0 0 0 1-1v-2.444h2.444c1.345 0 2.445-1.1 2.445-2.445v-2.444H23a1 1 0 0 0 1-1v-.445a1 1 0 0 0-1-1h-2.444v-2.444H23a1 1 0 0 0 1-1zM18 18H6V6h12v12z" opacity=".8"/>
    </g>
</svg>
