<svg width="16" height="16" viewBox="0 0 16 16" fill="none" xmlns="http://www.w3.org/2000/svg">
  <path fill-rule="evenodd" clip-rule="evenodd" d="M6.99382e-07 8C1.08564e-06 3.58171 3.58172 -1.08564e-06 8 -6.99382e-07C12.4183 -3.13123e-07 16 3.58171 16 8C16 12.4183 12.4183 16 8 16C3.58171 16 3.13123e-07 12.4183 6.99382e-07 8ZM7 5C7 4.447 7.447 4 8 4C8.553 4 9 4.447 9 5C9 5.553 8.553 6 8 6C7.447 6 7 5.553 7 5ZM7 11L7 8C7 7.44771 7.44772 7 8 7C8.55229 7 9 7.44771 9 8L9 11C9 11.5523 8.55229 12 8 12C7.44772 12 7 11.5523 7 11Z" fill="#407EFF"/>
</svg>
