<svg xmlns="http://www.w3.org/2000/svg" width="16" height="22" viewBox="0 0 16 22">
    <g fill="none" fill-rule="evenodd" opacity=".597">
        <path fill="#FFF" fill-opacity="0" d="M-4-1h24v24H-4z"/>
        <path fill="#788195" d="M8 2.941V0L4 3.922l4 3.921V4.902c3.3 0 6 2.647 6 5.882 0 .98-.3 1.961-.7 2.745L14.8 15c.7-1.275 1.2-2.647 1.2-4.216 0-4.313-3.6-7.843-8-7.843zm0 14.157c-3.3 0-6-2.647-6-5.882 0-.98.3-1.961.7-2.745L1.2 7C.5 8.275 0 9.647 0 11.216c0 4.313 3.6 7.843 8 7.843V22l4-3.922-4-3.921v2.941z"/>
    </g>
</svg>
