<svg xmlns="http://www.w3.org/2000/svg" width="21" height="15" viewBox="0 0 21 15">
    <g fill="none" fill-rule="evenodd">
        <path d="M-1-4h24v24H-1z"/>
        <g stroke="#407EFF" stroke-linecap="round" stroke-linejoin="round" stroke-width="2" opacity=".8">
            <path d="M19.62 3a2.297 2.297 0 0 0-1.603-1.653C16.597 1 10.913 1 10.913 1s-5.683 0-7.104.38a2.297 2.297 0 0 0-1.603 1.652 23.957 23.957 0 0 0-.38 4.37c-.01 1.476.118 2.95.38 4.403.22.773.828 1.374 1.603 1.586 1.42.38 7.104.38 7.104.38s5.684 0 7.104-.38a2.297 2.297 0 0 0 1.603-1.652c.258-1.431.385-2.883.38-4.337.01-1.476-.118-2.95-.38-4.403z"/>
            <path d="M9.054 10.103l4.75-2.7L9.054 4.7z"/>
        </g>
    </g>
</svg>
