<?xml version="1.0" encoding="utf-8"?><svg xmlns="http://www.w3.org/2000/svg" xmlns:xlink="http://www.w3.org/1999/xlink"><symbol viewBox="0 0 24 16" id="eye" xmlns="http://www.w3.org/2000/svg"><path fill="#788195" fill-opacity=".5" d="M12 0C6.546 0 1.907 3.306 0 8c1.907 4.694 6.546 8 12 8s10.093-3.306 12-8c-1.907-4.694-6.546-8-12-8zm0 13.335c-3 0-5.454-2.4-5.454-5.335S9 2.665 12 2.665c3 0 5.454 2.4 5.454 5.335S15 13.335 12 13.335zM12 4.8c-1.8 0-3.273 1.441-3.273 3.2 0 1.759 1.473 3.2 3.273 3.2s3.273-1.441 3.273-3.2c0-1.759-1.473-3.2-3.273-3.2z"/></symbol></svg>