<?xml version="1.0" encoding="utf-8"?><svg xmlns="http://www.w3.org/2000/svg" xmlns:xlink="http://www.w3.org/1999/xlink"><symbol viewBox="0 0 512 512" id="alert" xmlns="http://www.w3.org/2000/svg"><path fill="#e01f19" d="M256 48C141.1 48 48 141.1 48 256s93.1 208 208 208 208-93.1 208-208S370.9 48 256 48zm17.2 109.6l-3.1 115.1c-.2 8.2-5.9 14.8-14.1 14.8s-13.9-6.6-14.1-14.8l-3.1-115.1c-.2-9.6 7.5-17.6 17.2-17.6 9.6 0 17.4 7.9 17.2 17.6zM256 354c-10.7 0-19.1-8.1-19.1-18.4s8.4-18.4 19.1-18.4c10.7 0 19.1 8.1 19.1 18.4S266.7 354 256 354z"/></symbol><symbol viewBox="0 0 16 16" id="archive" xmlns="http://www.w3.org/2000/svg"><g fill="none" fill-rule="evenodd" opacity=".8"><path d="M-4-4h24v24H-4z"/><path stroke="currentColor" stroke-linecap="round" stroke-linejoin="round" stroke-width="2" d="M14.611 10.333v3.025c0 .835-.677 1.512-1.512 1.512H2.512A1.512 1.512 0 0 1 1 13.358v-3.025m3.111-3.889l3.695 3.695L11.5 6.444m-3.694-.777V1"/></g></symbol><symbol viewBox="0 0 18 19" id="archive-2" xmlns="http://www.w3.org/2000/svg"><g fill="none" fill-rule="evenodd"><path d="M-3-3h24v24H-3z"/><path d="M16.556 12.667v3.456c0 .955-.774 1.729-1.729 1.729H2.728A1.728 1.728 0 0 1 1 16.123v-3.456m3.556-4.445l4.222 4.222L13 8.222m-4.222 2.111V1" stroke="#407EFF" stroke-linecap="round" stroke-linejoin="round" stroke-width="2" opacity=".8"/></g></symbol><symbol viewBox="0 0 13 9" id="arrow" xmlns="http://www.w3.org/2000/svg"><g fill="none" fill-rule="evenodd"><path d="M17-6v20H-3V-6z"/><path fill="#788195" d="M6.864 5.477l4.28-4.402a.958.958 0 0 1 1.384.002l.143.147a1.035 1.035 0 0 1-.003 1.43L7.559 7.92a.965.965 0 0 1-1.391 0L1.059 2.655a1.033 1.033 0 0 1-.003-1.43l.143-.148a.96.96 0 0 1 1.384-.002l4.28 4.402z" opacity=".6"/></g></symbol><symbol viewBox="0 0 11 20" id="arrow-left" xmlns="http://www.w3.org/2000/svg"><g fill="none" fill-rule="evenodd"><path d="M-10-6h32v32h-32z"/><path stroke="#407EFF" stroke-linecap="round" stroke-width="2" d="M9.182 1L1.586 8.596a2 2 0 0 0 .002 2.83L9.182 19"/></g></symbol><symbol viewBox="0 0 11 20" id="arrow-right" xmlns="http://www.w3.org/2000/svg"><g fill="none" fill-rule="evenodd"><path d="M-12-6h32v32h-32z"/><path stroke="#407EFF" stroke-linecap="round" stroke-width="2" d="M1 1l7.596 7.596a2 2 0 0 1-.002 2.83L1 19"/></g></symbol><symbol viewBox="0 0 512 512" id="check" xmlns="http://www.w3.org/2000/svg"><path fill="#39b54a" d="M256 48C141.1 48 48 141.1 48 256s93.1 208 208 208 208-93.1 208-208S370.9 48 256 48zm106.5 150.5L228.8 332.8h-.1c-1.7 1.7-6.3 5.5-11.6 5.5-3.8 0-8.1-2.1-11.7-5.7l-56-56c-1.6-1.6-1.6-4.1 0-5.7l17.8-17.8c.8-.8 1.8-1.2 2.8-1.2 1 0 2 .4 2.8 1.2l44.4 44.4 122-122.9c.8-.8 1.8-1.2 2.8-1.2 1.1 0 2.1.4 2.8 1.2l17.5 18.1c1.8 1.7 1.8 4.2.2 5.8z"/></symbol><symbol viewBox="0 0 22 22" id="clock" xmlns="http://www.w3.org/2000/svg"><g fill="none" fill-rule="evenodd"><path d="M-3-3h28v28H-3z"/><path fill="#788195" fill-rule="nonzero" d="M21.323 3.676L18.107.726a.988.988 0 0 0-1.45.126l-.096.124a1 1 0 0 0 .116 1.348l3.216 2.95a.988.988 0 0 0 1.45-.126l.096-.124a1 1 0 0 0-.116-1.348zM5.443.98L5.348.853A.984.984 0 0 0 3.9.725L.678 3.673a1 1 0 0 0-.116 1.349l.096.125a.99.99 0 0 0 1.453.125l3.214-2.947A1 1 0 0 0 5.444.98zM9.819 6A.818.818 0 0 0 9 6.818v5.406a1 1 0 0 0 .472.85l4.025 2.5a.787.787 0 0 0 1.094-.269.821.821 0 0 0-.278-1.117l-3.677-2.256V6.818A.818.818 0 0 0 9.818 6zM11 2C5.478 2 1 6.478 1 12s4.467 10 10 10c5.522 0 10-4.478 10-10S16.522 2 11 2zm0 18c-4.423 0-8-3.577-8-8s3.577-8 8-8 8 3.577 8 8-3.577 8-8 8z" opacity=".8"/></g></symbol><symbol viewBox="0 0 22 22" id="clock-add" xmlns="http://www.w3.org/2000/svg"><g fill="none" fill-rule="evenodd"><path d="M-3-3h28v28H-3z"/><path fill="#788195" fill-rule="nonzero" d="M5.444.98L5.347.853A.984.984 0 0 0 3.9.725L.678 3.673a1 1 0 0 0-.116 1.349l.096.125a.99.99 0 0 0 1.453.125l3.214-2.947A1 1 0 0 0 5.444.98zm15.88 2.696L18.106.726a.988.988 0 0 0-1.45.126l-.096.124a1 1 0 0 0 .116 1.348l3.216 2.95a.988.988 0 0 0 1.45-.126l.096-.124a1 1 0 0 0-.116-1.348zM11 2C5.478 2 1 6.478 1 12s4.467 10 10 10c5.522 0 10-4.478 10-10S16.522 2 11 2zm0 18c-4.423 0-8-3.577-8-8s3.577-8 8-8 8 3.577 8 8-3.577 8-8 8zm0-12a1 1 0 0 0-1 1v2H8a1 1 0 0 0 0 2h2v2a1 1 0 0 0 2 0v-2h2a1 1 0 0 0 0-2h-2V9a1 1 0 0 0-1-1z" opacity=".8"/></g></symbol><symbol viewBox="0 0 212.982 212.982" id="close" xmlns="http://www.w3.org/2000/svg"><path fill="currentColor" d="M131.804 106.491l75.936-75.936c6.99-6.99 6.99-18.323 0-25.312-6.99-6.99-18.322-6.99-25.312 0L106.491 81.18 30.554 5.242c-6.99-6.99-18.322-6.99-25.312 0-6.989 6.99-6.989 18.323 0 25.312l75.937 75.936-75.937 75.937c-6.989 6.99-6.989 18.323 0 25.312 6.99 6.99 18.322 6.99 25.312 0l75.937-75.937 75.937 75.937c6.989 6.99 18.322 6.99 25.312 0 6.99-6.99 6.99-18.322 0-25.312l-75.936-75.936z" fill-rule="evenodd" clip-rule="evenodd"/></symbol><symbol viewBox="0 0 20 17" id="collapse" xmlns="http://www.w3.org/2000/svg"><g fill="none" fill-rule="evenodd"><path d="M-2-4h24v24H-2z"/><path fill="#788195" fill-rule="nonzero" d="M19.09 0H.91C.406 0 0 .346 0 .773v15.454c0 .427.407.773.91.773h18.18c.503 0 .91-.346.91-.773V.773C20 .346 19.593 0 19.09 0zM6 14.957H2V2h4v12.957zm12.9-.01H8V2h10v14l.9-1.052z"/></g></symbol><symbol viewBox="0 0 48 48" id="error" xmlns="http://www.w3.org/2000/svg"><g fill="none" fill-rule="evenodd"><circle cx="24" cy="24" r="24" fill="#FF2F00" opacity=".119"/><path fill="#FF6000" d="M26.958 24l4.918 5.706a1.538 1.538 0 0 1-2.17 2.17L24 26.96l-5.706 4.917a1.538 1.538 0 0 1-2.17-2.17L21.042 24l-4.918-5.705a1.54 1.54 0 0 1 2.17-2.172L24 21.042l5.706-4.92a1.54 1.54 0 0 1 2.17 2.173L26.958 24z"/></g></symbol><symbol viewBox="0 0 18 18" id="external-link" xmlns="http://www.w3.org/2000/svg"><g fill="none" fill-rule="evenodd"><path d="M-4-3h24v24H-4z"/><g stroke="#407EFF" stroke-linecap="round" stroke-linejoin="round" stroke-width="2" opacity=".8"><path d="M7.355 9.747a4 4 0 0 0 6.032.432l2.4-2.4a4 4 0 0 0-5.656-5.656L8.755 3.49"/><path d="M10.555 8.147a4 4 0 0 0-6.032-.432l-2.4 2.4a4 4 0 0 0 5.656 5.656l1.368-1.368"/></g></g></symbol><symbol viewBox="0 0 18 18" id="external-link-2" xmlns="http://www.w3.org/2000/svg"><g fill="none" fill-rule="evenodd"><path d="M-3-3h24v24H-3z"/><path d="M14.333 9.889v5.333c0 .982-.796 1.778-1.777 1.778H2.778A1.778 1.778 0 0 1 1 15.222V5.444c0-.981.796-1.777 1.778-1.777H8.11M11.667 1H17v5.333m-9.778 4.445L17 1" stroke="#407EFF" stroke-linecap="round" stroke-linejoin="round" stroke-width="2" opacity=".8"/></g></symbol><symbol viewBox="0 0 24 16" id="eye" xmlns="http://www.w3.org/2000/svg"><path fill="#788195" fill-opacity=".5" d="M12 0C6.546 0 1.907 3.306 0 8c1.907 4.694 6.546 8 12 8s10.093-3.306 12-8c-1.907-4.694-6.546-8-12-8zm0 13.335c-3 0-5.454-2.4-5.454-5.335S9 2.665 12 2.665c3 0 5.454 2.4 5.454 5.335S15 13.335 12 13.335zM12 4.8c-1.8 0-3.273 1.441-3.273 3.2 0 1.759 1.473 3.2 3.273 3.2s3.273-1.441 3.273-3.2c0-1.759-1.473-3.2-3.273-3.2z"/></symbol><symbol viewBox="0 0 24 20" id="eye-off" xmlns="http://www.w3.org/2000/svg"><path fill="#788195" fill-opacity=".497" d="M12.003 4.208c3.01 0 5.457 2.36 5.457 5.266 0 .682-.139 1.328-.39 1.927l3.186 3.073a12.475 12.475 0 0 0 3.744-5c-1.89-4.62-6.55-7.896-12.008-7.896a13.27 13.27 0 0 0-4.344.734l2.357 2.277a5.53 5.53 0 0 1 1.998-.38zm-10.91-2.87l2.49 2.402.504.484A12.434 12.434 0 0 0 0 9.474c1.885 4.62 6.545 7.896 12.003 7.896 1.692 0 3.304-.318 4.777-.886l.46.443L20.439 20l1.387-1.339L2.475 0 1.092 1.339zm6.03 5.818l1.693 1.63a2.905 2.905 0 0 0-.086.683c0 1.745 1.462 3.156 3.273 3.156.24 0 .482-.031.707-.083l1.692 1.63a5.532 5.532 0 0 1-2.4.557c-3.01 0-5.457-2.36-5.457-5.265 0-.823.22-1.6.578-2.308zm4.703-.817l3.438 3.317.022-.166c0-1.745-1.462-3.157-3.273-3.157l-.187.006z"/></symbol><symbol viewBox="0 0 15 19" id="file" xmlns="http://www.w3.org/2000/svg"><g fill="none" fill-rule="evenodd"><path d="M-5-3h24v24H-5z"/><g stroke="#407EFF" stroke-linecap="round" stroke-linejoin="round" stroke-width="2" opacity=".8"><path d="M8.313 1H2.625C1.728 1 1 1.728 1 2.625v13c0 .897.728 1.625 1.625 1.625h9.75c.897 0 1.625-.728 1.625-1.625V6.687L8.312 1z"/><path d="M8.313 1v5.688H14"/></g></g></symbol><symbol viewBox="0 0 15 19" id="file-plus" xmlns="http://www.w3.org/2000/svg"><g fill="none" fill-rule="evenodd" stroke="#407EFF" stroke-linecap="round" stroke-linejoin="round" stroke-width="2" opacity=".8"><path d="M9.125 1h-6.5C1.728 1 1 1.728 1 2.625v13c0 .897.728 1.625 1.625 1.625h9.75c.897 0 1.625-.728 1.625-1.625v-9.75L9.125 1z"/><path d="M9.125 1v4.875H14M7.5 14V9.125m-2.437 2.438h4.875"/></g></symbol><symbol fill="none" viewBox="0 0 20 20" id="fullscreen" xmlns="http://www.w3.org/2000/svg"><path d="M0 2.222v3.334c0 .61.5 1.11 1.111 1.11s1.111-.5 1.111-1.11V3.333c0-.61.5-1.11 1.111-1.11h2.223A1.113 1.113 0 0 0 5.557 0H2.222C1 0 0 1 0 2.222zm1.111 11.111c-.611 0-1.111.5-1.111 1.111v3.334C0 19 1 20 2.222 20h3.334c.61 0 1.11-.5 1.11-1.111s-.5-1.111-1.11-1.111H3.333c-.61 0-1.11-.5-1.11-1.111v-2.223c0-.61-.5-1.11-1.112-1.11zm16.667 3.334c0 .61-.5 1.11-1.111 1.11h-2.223c-.61 0-1.11.5-1.11 1.112 0 .611.5 1.111 1.11 1.111h3.334C19 20 20 19 20 17.778v-3.334c0-.61-.5-1.11-1.111-1.11s-1.111.5-1.111 1.11v2.223zm0-16.667h-3.334c-.61 0-1.11.5-1.11 1.111s.5 1.111 1.11 1.111h2.223c.61 0 1.11.5 1.11 1.111v2.223c0 .61.5 1.11 1.112 1.11.611 0 1.111-.5 1.111-1.11V2.222C20 1 19 0 17.778 0z" fill="#407EFF"/></symbol><symbol viewBox="0 0 18 19" id="github" xmlns="http://www.w3.org/2000/svg"><g fill="none" fill-rule="evenodd" opacity=".8"><path d="M-3-3h24v24H-3z"/><path stroke="#407EFF" stroke-linecap="round" stroke-linejoin="round" stroke-width="2" d="M6.564 15.329C2.59 16.521 2.59 13.342 1 12.944m11.128 4.77v-3.077a2.679 2.679 0 0 0-.747-2.074c2.496-.278 5.119-1.224 5.119-5.564 0-1.11-.427-2.177-1.192-2.981a4.03 4.03 0 0 0-.072-2.997s-.938-.278-3.108 1.177a10.635 10.635 0 0 0-5.564 0C4.394.743 3.456 1.02 3.456 1.02a4.03 4.03 0 0 0-.071 2.997 4.324 4.324 0 0 0-1.193 3.005c0 4.308 2.623 5.254 5.12 5.564a2.679 2.679 0 0 0-.748 2.05v3.077"/></g></symbol><symbol viewBox="0 0 18 18" id="image" xmlns="http://www.w3.org/2000/svg"><g fill="none" fill-rule="evenodd"><path d="M-3-3h24v24H-3z"/><g stroke="#407EFF" stroke-linecap="round" stroke-linejoin="round" stroke-width="2" opacity=".8" transform="translate(1 1)"><rect width="16" height="16" rx="2"/><circle cx="4.889" cy="4.889" r="1.333"/><path d="M16 10.667l-4.444-4.445L1.778 16"/></g></g></symbol><symbol viewBox="0 0 24 24" id="memory" xmlns="http://www.w3.org/2000/svg"><g fill="none" fill-rule="evenodd"><path d="M-2-3h28v28H-2z"/><path fill="#788195" fill-rule="nonzero" d="M14 14h-4v-4h4v4zm10-4.222v-.445a1 1 0 0 0-1-1h-2.444V5.89c0-1.345-1.1-2.445-2.445-2.445h-2.444V1a1 1 0 0 0-1-1h-.445a1 1 0 0 0-1 1v2.444h-2.444V1a1 1 0 0 0-1-1h-.445a1 1 0 0 0-1 1v2.444H5.89A2.452 2.452 0 0 0 3.444 5.89v2.444H1a1 1 0 0 0-1 1v.445a1 1 0 0 0 1 1h2.444v2.444H1a1 1 0 0 0-1 1v.445a1 1 0 0 0 1 1h2.444v2.444c0 1.345 1.1 2.445 2.445 2.445h2.444V23a1 1 0 0 0 1 1h.445a1 1 0 0 0 1-1v-2.444h2.444V23a1 1 0 0 0 1 1h.445a1 1 0 0 0 1-1v-2.444h2.444c1.345 0 2.445-1.1 2.445-2.445v-2.444H23a1 1 0 0 0 1-1v-.445a1 1 0 0 0-1-1h-2.444v-2.444H23a1 1 0 0 0 1-1zM18 18H6V6h12v12z" opacity=".8"/></g></symbol><symbol viewBox="0 0 18 20" id="package" xmlns="http://www.w3.org/2000/svg"><g fill="none" fill-rule="evenodd"><path d="M-3-2h24v24H-3z"/><g stroke="#407EFF" stroke-linecap="round" stroke-linejoin="round" stroke-width="2" opacity=".8"><path d="M9.712 1.167l6.4 3.2A1.6 1.6 0 0 1 17 5.8v7.624a1.6 1.6 0 0 1-.888 1.432l-6.4 3.2a1.6 1.6 0 0 1-1.432 0l-6.4-3.2a1.6 1.6 0 0 1-.88-1.44V5.8a1.6 1.6 0 0 1 .888-1.432l6.4-3.2a1.6 1.6 0 0 1 1.424 0z"/><path d="M1.256 4.935L9 8.807l7.744-3.872M9 18.215V8.807"/></g></g></symbol><symbol viewBox="0 0 20 20" id="pdf" xmlns="http://www.w3.org/2000/svg"><g fill="none" fill-rule="evenodd" opacity=".8"><path d="M-2-2h24v24H-2z"/><path fill="#407EFF" fill-rule="nonzero" d="M18 0H6C4.9 0 4 .9 4 2v12c0 1.1.9 2 2 2h12c1.1 0 2-.9 2-2V2c0-1.1-.9-2-2-2zm0 14H6V2h12v12zM2 4H0v14c0 1.1.9 2 2 2h14v-2H2V4zm12 6V7c0-.55-.45-1-1-1h-2v5h2c.55 0 1-.45 1-1zm-2-3h1v3h-1V7zm4 2h1V8h-1V7h1V6h-2v5h1V9zM8 9h1c.55 0 1-.45 1-1V7c0-.55-.45-1-1-1H7v5h1V9zm0-2h1v1H8V7z"/></g></symbol><symbol viewBox="0 0 16 22" id="sync" xmlns="http://www.w3.org/2000/svg"><g fill="none" fill-rule="evenodd" opacity=".597"><path d="M-4-1h24v24H-4z"/><path fill="#788195" d="M8 2.941V0L4 3.922l4 3.921V4.902c3.3 0 6 2.647 6 5.882 0 .98-.3 1.961-.7 2.745L14.8 15c.7-1.275 1.2-2.647 1.2-4.216 0-4.313-3.6-7.843-8-7.843zm0 14.157c-3.3 0-6-2.647-6-5.882 0-.98.3-1.961.7-2.745L1.2 7C.5 8.275 0 9.647 0 11.216c0 4.313 3.6 7.843 8 7.843V22l4-3.922-4-3.921v2.941z"/></g></symbol><symbol viewBox="0 0 300 300" id="telegram" xmlns="http://www.w3.org/2000/svg"><path d="M5.299 144.645l69.126 25.8 26.756 86.047c1.712 5.511 8.451 7.548 12.924 3.891l38.532-31.412a11.496 11.496 0 0 1 14.013-.391l69.498 50.457c4.785 3.478 11.564.856 12.764-4.926L299.823 29.22c1.31-6.316-4.896-11.585-10.91-9.259L5.218 129.402c-7.001 2.7-6.94 12.612.081 15.243zm91.57 12.066l135.098-83.207c2.428-1.491 4.926 1.792 2.841 3.726L123.313 180.87a23.112 23.112 0 0 0-7.163 13.829l-3.798 28.146c-.503 3.758-5.782 4.131-6.819.494l-14.607-51.325c-1.673-5.854.765-12.107 5.943-15.303z" fill="#407eff"/></symbol>
  <symbol viewBox="0 0 16 32" id="close-small" xmlns="http://www.w3.org/2000/svg">
    <g>
      <path id="ic-nav-close" opacity="0.8" fill-rule="evenodd" clip-rule="evenodd" d="M8 7.05713L10.8284 4.22873C11.0887 3.96838 11.5109 3.96838 11.7712 4.22873C12.0316 4.48908 12.0316 4.91119 11.7712 5.17154L8.94281 7.99994L11.7713 10.8284C12.0316 11.0887 12.0316 11.5109 11.7713 11.7712C11.5109 12.0316 11.0888 12.0316 10.8285 11.7712L8 8.94275L5.17155 11.7712C4.9112 12.0316 4.48909 12.0316 4.22874 11.7712C3.96839 11.5109 3.96839 11.0887 4.22874 10.8284L7.05719 7.99994L4.22879 5.17154C3.96844 4.91119 3.96844 4.48908 4.22879 4.22873C4.48914 3.96838 4.91125 3.96838 5.1716 4.22873L8 7.05713Z" fill="#788195"/>
      <mask id="mask0" mask-type="alpha" maskUnits="userSpaceOnUse" x="0" y="0" width="16" height="16">
        <path id="ic-nav-close_2" fill-rule="evenodd" clip-rule="evenodd" d="M8 7.05713L10.8284 4.22873C11.0887 3.96838 11.5109 3.96838 11.7712 4.22873C12.0316 4.48908 12.0316 4.91119 11.7712 5.17154L8.94281 7.99994L11.7713 10.8284C12.0316 11.0887 12.0316 11.5109 11.7713 11.7712C11.5109 12.0316 11.0888 12.0316 10.8285 11.7712L8 8.94275L5.17155 11.7712C4.9112 12.0316 4.48909 12.0316 4.22874 11.7712C3.96839 11.5109 3.96839 11.0887 4.22874 10.8284L7.05719 7.99994L4.22879 5.17154C3.96844 4.91119 3.96844 4.48908 4.22879 4.22873C4.48914 3.96838 4.91125 3.96838 5.1716 4.22873L8 7.05713Z" fill="white"/>
      </mask>
      <g mask="url(#mask0)">
      </g>
    </g>
  </symbol>
  <symbol id="message-success" viewBox="0 0 16 16" fill="none" xmlns="http://www.w3.org/2000/svg">
    <path fill-rule="evenodd" clip-rule="evenodd" d="M8 16C12.4183 16 16 12.4183 16 8C16 3.58172 12.4183 0 8 0C3.58172 0 0 3.58172 0 8C0 12.4183 3.58172 16 8 16ZM4.29289 7.29289C4.68342 6.90237 5.31658 6.90237 5.70711 7.29289L7.09384 8.67962L10.4 5.2C10.8418 4.86863 11.4686 4.95817 11.8 5.4C12.1314 5.84183 12.0418 6.46863 11.6 6.8L7.6 10.8C7.20188 11.0986 6.64478 11.059 6.29289 10.7071L4.29289 8.70711C3.90237 8.31658 3.90237 7.68342 4.29289 7.29289Z" fill="#39B54A"/>
  </symbol>
  <symbol id="message-warning" viewBox="0 0 16 16" fill="none" xmlns="http://www.w3.org/2000/svg">
    <path fill-rule="evenodd" clip-rule="evenodd" d="M16 8C16 12.4183 12.4183 16 8 16C3.58172 16 0 12.4183 0 8C0 3.58172 3.58172 0 8 0C12.4183 0 16 3.58172 16 8ZM9 11C9 11.553 8.553 12 8 12C7.447 12 7 11.553 7 11C7 10.447 7.447 10 8 10C8.553 10 9 10.447 9 11ZM9 5V8C9 8.55229 8.55229 9 8 9C7.44772 9 7 8.55229 7 8V5C7 4.44772 7.44772 4 8 4C8.55229 4 9 4.44772 9 5Z" fill="#FB8C00"/>
  </symbol>
  <symbol id="message-error" viewBox="0 0 16 16" fill="none" xmlns="http://www.w3.org/2000/svg">
    <path fill-rule="evenodd" clip-rule="evenodd" d="M16 8C16 12.4183 12.4183 16 8 16C3.58172 16 0 12.4183 0 8C0 3.58172 3.58172 0 8 0C12.4183 0 16 3.58172 16 8ZM8 9.69706L8.95147 10.6485C9.4201 11.1172 10.1799 11.1172 10.6485 10.6485C11.1172 10.1799 11.1172 9.4201 10.6485 8.95147L9.69706 8L10.6485 7.04853C11.1172 6.5799 11.1172 5.8201 10.6485 5.35147C10.1799 4.88284 9.4201 4.88284 8.95147 5.35147L8 6.30294L7.04853 5.35147C6.5799 4.88284 5.8201 4.88284 5.35147 5.35147C4.88284 5.8201 4.88284 6.5799 5.35147 7.04853L6.30294 8L5.35147 8.95147C4.88284 9.4201 4.88284 10.1799 5.35147 10.6485C5.8201 11.1172 6.5799 11.1172 7.04853 10.6485L8 9.69706Z" fill="#E01F19"/>
  </symbol>
  <symbol id="message-info" viewBox="0 0 16 16" fill="none" xmlns="http://www.w3.org/2000/svg">
    <path fill-rule="evenodd" clip-rule="evenodd" d="M6.99382e-07 8C1.08564e-06 3.58171 3.58172 -1.08564e-06 8 -6.99382e-07C12.4183 -3.13123e-07 16 3.58171 16 8C16 12.4183 12.4183 16 8 16C3.58171 16 3.13123e-07 12.4183 6.99382e-07 8ZM7 5C7 4.447 7.447 4 8 4C8.553 4 9 4.447 9 5C9 5.553 8.553 6 8 6C7.447 6 7 5.553 7 5ZM7 11L7 8C7 7.44771 7.44772 7 8 7C8.55229 7 9 7.44771 9 8L9 11C9 11.5523 8.55229 12 8 12C7.44772 12 7 11.5523 7 11Z" fill="#407EFF"/>
  </symbol>
<symbol viewBox="0 0 21 15" id="youtube" xmlns="http://www.w3.org/2000/svg"><g fill="none" fill-rule="evenodd"><path d="M-1-4h24v24H-1z"/><g stroke="#407EFF" stroke-linecap="round" stroke-linejoin="round" stroke-width="2" opacity=".8"><path d="M19.62 3a2.297 2.297 0 0 0-1.603-1.653C16.597 1 10.913 1 10.913 1s-5.683 0-7.104.38a2.297 2.297 0 0 0-1.603 1.652 23.957 23.957 0 0 0-.38 4.37 23.9 23.9 0 0 0 .38 4.403c.22.773.828 1.374 1.603 1.586 1.42.38 7.104.38 7.104.38s5.684 0 7.104-.38a2.297 2.297 0 0 0 1.603-1.652A23.98 23.98 0 0 0 20 7.402a23.9 23.9 0 0 0-.38-4.403z"/><path d="M9.054 10.103l4.75-2.7L9.054 4.7z"/></g></g></symbol></svg>
