<?xml version="1.0" encoding="utf-8"?><svg xmlns="http://www.w3.org/2000/svg" xmlns:xlink="http://www.w3.org/1999/xlink"><symbol viewBox="0 0 22 22" id="clock" xmlns="http://www.w3.org/2000/svg"><g fill="none" fill-rule="evenodd"><path d="M-3-3h28v28H-3z"/><path fill="#788195" fill-rule="nonzero" d="M21.323 3.676L18.107.726a.988.988 0 0 0-1.45.126l-.096.124a1 1 0 0 0 .116 1.348l3.216 2.95a.988.988 0 0 0 1.45-.126l.096-.124a1 1 0 0 0-.116-1.348zM5.443.98L5.348.853A.984.984 0 0 0 3.9.725L.678 3.673a1 1 0 0 0-.116 1.349l.096.125a.99.99 0 0 0 1.453.125l3.214-2.947A1 1 0 0 0 5.444.98zM9.819 6A.818.818 0 0 0 9 6.818v5.406a1 1 0 0 0 .472.85l4.025 2.5a.787.787 0 0 0 1.094-.269.821.821 0 0 0-.278-1.117l-3.677-2.256V6.818A.818.818 0 0 0 9.818 6zM11 2C5.478 2 1 6.478 1 12s4.467 10 10 10c5.522 0 10-4.478 10-10S16.522 2 11 2zm0 18c-4.423 0-8-3.577-8-8s3.577-8 8-8 8 3.577 8 8-3.577 8-8 8z" opacity=".8"/></g></symbol><symbol viewBox="0 0 22 22" id="clock-add" xmlns="http://www.w3.org/2000/svg"><g fill="none" fill-rule="evenodd"><path d="M-3-3h28v28H-3z"/><path fill="#788195" fill-rule="nonzero" d="M5.444.98L5.347.853A.984.984 0 0 0 3.9.725L.678 3.673a1 1 0 0 0-.116 1.349l.096.125a.99.99 0 0 0 1.453.125l3.214-2.947A1 1 0 0 0 5.444.98zm15.88 2.696L18.106.726a.988.988 0 0 0-1.45.126l-.096.124a1 1 0 0 0 .116 1.348l3.216 2.95a.988.988 0 0 0 1.45-.126l.096-.124a1 1 0 0 0-.116-1.348zM11 2C5.478 2 1 6.478 1 12s4.467 10 10 10c5.522 0 10-4.478 10-10S16.522 2 11 2zm0 18c-4.423 0-8-3.577-8-8s3.577-8 8-8 8 3.577 8 8-3.577 8-8 8zm0-12a1 1 0 0 0-1 1v2H8a1 1 0 0 0 0 2h2v2a1 1 0 0 0 2 0v-2h2a1 1 0 0 0 0-2h-2V9a1 1 0 0 0-1-1z" opacity=".8"/></g></symbol><symbol viewBox="0 0 20 17" id="collapse" xmlns="http://www.w3.org/2000/svg"><g fill="none" fill-rule="evenodd"><path d="M-2-4h24v24H-2z"/><path fill="#788195" fill-rule="nonzero" d="M19.09 0H.91C.406 0 0 .346 0 .773v15.454c0 .427.407.773.91.773h18.18c.503 0 .91-.346.91-.773V.773C20 .346 19.593 0 19.09 0zM6 14.957H2V2h4v12.957zm12.9-.01H8V2h10v14l.9-1.052z"/></g></symbol><symbol viewBox="0 0 24 16" id="eye" xmlns="http://www.w3.org/2000/svg"><path fill="#788195" fill-opacity=".5" d="M12 0C6.546 0 1.907 3.306 0 8c1.907 4.694 6.546 8 12 8s10.093-3.306 12-8c-1.907-4.694-6.546-8-12-8zm0 13.335c-3 0-5.454-2.4-5.454-5.335S9 2.665 12 2.665c3 0 5.454 2.4 5.454 5.335S15 13.335 12 13.335zM12 4.8c-1.8 0-3.273 1.441-3.273 3.2 0 1.759 1.473 3.2 3.273 3.2s3.273-1.441 3.273-3.2c0-1.759-1.473-3.2-3.273-3.2z"/></symbol><symbol viewBox="0 0 24 20" id="eye-off" xmlns="http://www.w3.org/2000/svg"><path fill="#788195" fill-opacity=".497" d="M12.003 4.208c3.01 0 5.457 2.36 5.457 5.266 0 .682-.139 1.328-.39 1.927l3.186 3.073a12.475 12.475 0 0 0 3.744-5c-1.89-4.62-6.55-7.896-12.008-7.896a13.27 13.27 0 0 0-4.344.734l2.357 2.277a5.53 5.53 0 0 1 1.998-.38zm-10.91-2.87l2.49 2.402.504.484A12.434 12.434 0 0 0 0 9.474c1.885 4.62 6.545 7.896 12.003 7.896 1.692 0 3.304-.318 4.777-.886l.46.443L20.439 20l1.387-1.339L2.475 0 1.092 1.339zm6.03 5.818l1.693 1.63a2.905 2.905 0 0 0-.086.683c0 1.745 1.462 3.156 3.273 3.156.24 0 .482-.031.707-.083l1.692 1.63a5.532 5.532 0 0 1-2.4.557c-3.01 0-5.457-2.36-5.457-5.265 0-.823.22-1.6.578-2.308zm4.703-.817l3.438 3.317.022-.166c0-1.745-1.462-3.157-3.273-3.157l-.187.006z"/></symbol><symbol viewBox="0 0 24 24" id="memory" xmlns="http://www.w3.org/2000/svg"><g fill="none" fill-rule="evenodd"><path d="M-2-3h28v28H-2z"/><path fill="#788195" fill-rule="nonzero" d="M14 14h-4v-4h4v4zm10-4.222v-.445a1 1 0 0 0-1-1h-2.444V5.89c0-1.345-1.1-2.445-2.445-2.445h-2.444V1a1 1 0 0 0-1-1h-.445a1 1 0 0 0-1 1v2.444h-2.444V1a1 1 0 0 0-1-1h-.445a1 1 0 0 0-1 1v2.444H5.89A2.452 2.452 0 0 0 3.444 5.89v2.444H1a1 1 0 0 0-1 1v.445a1 1 0 0 0 1 1h2.444v2.444H1a1 1 0 0 0-1 1v.445a1 1 0 0 0 1 1h2.444v2.444c0 1.345 1.1 2.445 2.445 2.445h2.444V23a1 1 0 0 0 1 1h.445a1 1 0 0 0 1-1v-2.444h2.444V23a1 1 0 0 0 1 1h.445a1 1 0 0 0 1-1v-2.444h2.444c1.345 0 2.445-1.1 2.445-2.445v-2.444H23a1 1 0 0 0 1-1v-.445a1 1 0 0 0-1-1h-2.444v-2.444H23a1 1 0 0 0 1-1zM18 18H6V6h12v12z" opacity=".8"/></g></symbol></svg>