<?xml version="1.0" encoding="utf-8"?><svg xmlns="http://www.w3.org/2000/svg" xmlns:xlink="http://www.w3.org/1999/xlink"><symbol viewBox="0 0 20 17" id="collapse" xmlns="http://www.w3.org/2000/svg"><g fill="none" fill-rule="evenodd"><path d="M-2-4h24v24H-2z"/><path fill="#788195" fill-rule="nonzero" d="M19.09 0H.91C.406 0 0 .346 0 .773v15.454c0 .427.407.773.91.773h18.18c.503 0 .91-.346.91-.773V.773C20 .346 19.593 0 19.09 0zM6 14.957H2V2h4v12.957zm12.9-.01H8V2h10v14l.9-1.052z"/></g></symbol><symbol viewBox="0 0 24 16" id="eye" xmlns="http://www.w3.org/2000/svg"><path fill="#788195" fill-opacity=".5" d="M12 0C6.546 0 1.907 3.306 0 8c1.907 4.694 6.546 8 12 8s10.093-3.306 12-8c-1.907-4.694-6.546-8-12-8zm0 13.335c-3 0-5.454-2.4-5.454-5.335S9 2.665 12 2.665c3 0 5.454 2.4 5.454 5.335S15 13.335 12 13.335zM12 4.8c-1.8 0-3.273 1.441-3.273 3.2 0 1.759 1.473 3.2 3.273 3.2s3.273-1.441 3.273-3.2c0-1.759-1.473-3.2-3.273-3.2z"/></symbol><symbol viewBox="0 0 24 20" id="eye-off" xmlns="http://www.w3.org/2000/svg"><path fill="#788195" fill-opacity=".497" d="M12.003 4.208c3.01 0 5.457 2.36 5.457 5.266 0 .682-.139 1.328-.39 1.927l3.186 3.073a12.475 12.475 0 0 0 3.744-5c-1.89-4.62-6.55-7.896-12.008-7.896a13.27 13.27 0 0 0-4.344.734l2.357 2.277a5.53 5.53 0 0 1 1.998-.38zm-10.91-2.87l2.49 2.402.504.484A12.434 12.434 0 0 0 0 9.474c1.885 4.62 6.545 7.896 12.003 7.896 1.692 0 3.304-.318 4.777-.886l.46.443L20.439 20l1.387-1.339L2.475 0 1.092 1.339zm6.03 5.818l1.693 1.63a2.905 2.905 0 0 0-.086.683c0 1.745 1.462 3.156 3.273 3.156.24 0 .482-.031.707-.083l1.692 1.63a5.532 5.532 0 0 1-2.4.557c-3.01 0-5.457-2.36-5.457-5.265 0-.823.22-1.6.578-2.308zm4.703-.817l3.438 3.317.022-.166c0-1.745-1.462-3.157-3.273-3.157l-.187.006z"/></symbol><symbol viewBox="0 0 300 300" id="telegram" xmlns="http://www.w3.org/2000/svg"><path d="M5.299 144.645l69.126 25.8 26.756 86.047c1.712 5.511 8.451 7.548 12.924 3.891l38.532-31.412a11.496 11.496 0 0 1 14.013-.391l69.498 50.457c4.785 3.478 11.564.856 12.764-4.926L299.823 29.22c1.31-6.316-4.896-11.585-10.91-9.259L5.218 129.402c-7.001 2.7-6.94 12.612.081 15.243zm91.57 12.066l135.098-83.207c2.428-1.491 4.926 1.792 2.841 3.726L123.313 180.87a23.112 23.112 0 0 0-7.163 13.829l-3.798 28.146c-.503 3.758-5.782 4.131-6.819.494l-14.607-51.325c-1.673-5.854.765-12.107 5.943-15.303z" fill="#407eff"/></symbol></svg>