<?xml version="1.0" encoding="utf-8"?><svg xmlns="http://www.w3.org/2000/svg" xmlns:xlink="http://www.w3.org/1999/xlink"><symbol viewBox="0 0 512 512" id="alert" xmlns="http://www.w3.org/2000/svg"><path fill="#e01f19" d="M256 48C141.1 48 48 141.1 48 256s93.1 208 208 208 208-93.1 208-208S370.9 48 256 48zm17.2 109.6l-3.1 115.1c-.2 8.2-5.9 14.8-14.1 14.8s-13.9-6.6-14.1-14.8l-3.1-115.1c-.2-9.6 7.5-17.6 17.2-17.6 9.6 0 17.4 7.9 17.2 17.6zM256 354c-10.7 0-19.1-8.1-19.1-18.4s8.4-18.4 19.1-18.4c10.7 0 19.1 8.1 19.1 18.4S266.7 354 256 354z"/></symbol><symbol viewBox="0 0 512 512" id="check" xmlns="http://www.w3.org/2000/svg"><path fill="#39b54a" d="M256 48C141.1 48 48 141.1 48 256s93.1 208 208 208 208-93.1 208-208S370.9 48 256 48zm106.5 150.5L228.8 332.8h-.1c-1.7 1.7-6.3 5.5-11.6 5.5-3.8 0-8.1-2.1-11.7-5.7l-56-56c-1.6-1.6-1.6-4.1 0-5.7l17.8-17.8c.8-.8 1.8-1.2 2.8-1.2 1 0 2 .4 2.8 1.2l44.4 44.4 122-122.9c.8-.8 1.8-1.2 2.8-1.2 1.1 0 2.1.4 2.8 1.2l17.5 18.1c1.8 1.7 1.8 4.2.2 5.8z"/></symbol><symbol viewBox="0 0 212.982 212.982" id="close" xmlns="http://www.w3.org/2000/svg"><path fill="currentColor" d="M131.804 106.491l75.936-75.936c6.99-6.99 6.99-18.323 0-25.312-6.99-6.99-18.322-6.99-25.312 0L106.491 81.18 30.554 5.242c-6.99-6.99-18.322-6.99-25.312 0-6.989 6.99-6.989 18.323 0 25.312l75.937 75.936-75.937 75.937c-6.989 6.99-6.989 18.323 0 25.312 6.99 6.99 18.322 6.99 25.312 0l75.937-75.937 75.937 75.937c6.989 6.99 18.322 6.99 25.312 0 6.99-6.99 6.99-18.322 0-25.312l-75.936-75.936z" fill-rule="evenodd" clip-rule="evenodd"/></symbol><symbol viewBox="0 0 20 17" id="collapse" xmlns="http://www.w3.org/2000/svg"><g fill="none" fill-rule="evenodd"><path d="M-2-4h24v24H-2z"/><path fill="#788195" fill-rule="nonzero" d="M19.09 0H.91C.406 0 0 .346 0 .773v15.454c0 .427.407.773.91.773h18.18c.503 0 .91-.346.91-.773V.773C20 .346 19.593 0 19.09 0zM6 14.957H2V2h4v12.957zm12.9-.01H8V2h10v14l.9-1.052z"/></g></symbol><symbol viewBox="0 0 24 16" id="eye" xmlns="http://www.w3.org/2000/svg"><path fill="#788195" fill-opacity=".5" d="M12 0C6.546 0 1.907 3.306 0 8c1.907 4.694 6.546 8 12 8s10.093-3.306 12-8c-1.907-4.694-6.546-8-12-8zm0 13.335c-3 0-5.454-2.4-5.454-5.335S9 2.665 12 2.665c3 0 5.454 2.4 5.454 5.335S15 13.335 12 13.335zM12 4.8c-1.8 0-3.273 1.441-3.273 3.2 0 1.759 1.473 3.2 3.273 3.2s3.273-1.441 3.273-3.2c0-1.759-1.473-3.2-3.273-3.2z"/></symbol><symbol viewBox="0 0 24 20" id="eye-off" xmlns="http://www.w3.org/2000/svg"><path fill="#788195" fill-opacity=".497" d="M12.003 4.208c3.01 0 5.457 2.36 5.457 5.266 0 .682-.139 1.328-.39 1.927l3.186 3.073a12.475 12.475 0 0 0 3.744-5c-1.89-4.62-6.55-7.896-12.008-7.896a13.27 13.27 0 0 0-4.344.734l2.357 2.277a5.53 5.53 0 0 1 1.998-.38zm-10.91-2.87l2.49 2.402.504.484A12.434 12.434 0 0 0 0 9.474c1.885 4.62 6.545 7.896 12.003 7.896 1.692 0 3.304-.318 4.777-.886l.46.443L20.439 20l1.387-1.339L2.475 0 1.092 1.339zm6.03 5.818l1.693 1.63a2.905 2.905 0 0 0-.086.683c0 1.745 1.462 3.156 3.273 3.156.24 0 .482-.031.707-.083l1.692 1.63a5.532 5.532 0 0 1-2.4.557c-3.01 0-5.457-2.36-5.457-5.265 0-.823.22-1.6.578-2.308zm4.703-.817l3.438 3.317.022-.166c0-1.745-1.462-3.157-3.273-3.157l-.187.006z"/></symbol></svg>