<?xml version="1.0" encoding="utf-8"?><svg xmlns="http://www.w3.org/2000/svg" xmlns:xlink="http://www.w3.org/1999/xlink"><symbol viewBox="0 0 70 70" id="check" xmlns="http://www.w3.org/2000/svg"><path d="M26.474 70a6.972 6.972 0 0 1-5.557-2.764L3.049 43.639a6.971 6.971 0 0 1 11.116-8.414l11.752 15.518L55.474 3.285a6.977 6.977 0 0 1 9.604-2.232 6.969 6.969 0 0 1 2.23 9.602l-34.916 56.06A6.967 6.967 0 0 1 26.474 70z" fill="#030104"/></symbol><symbol viewBox="0 0 20 17" id="collapse" xmlns="http://www.w3.org/2000/svg"><g fill="none" fill-rule="evenodd"><path d="M-2-4h24v24H-2z"/><path fill="#788195" fill-rule="nonzero" d="M19.09 0H.91C.406 0 0 .346 0 .773v15.454c0 .427.407.773.91.773h18.18c.503 0 .91-.346.91-.773V.773C20 .346 19.593 0 19.09 0zM6 14.957H2V2h4v12.957zm12.9-.01H8V2h10v14l.9-1.052z"/></g></symbol><symbol viewBox="0 0 24 16" id="eye" xmlns="http://www.w3.org/2000/svg"><path fill="#788195" fill-opacity=".5" d="M12 0C6.546 0 1.907 3.306 0 8c1.907 4.694 6.546 8 12 8s10.093-3.306 12-8c-1.907-4.694-6.546-8-12-8zm0 13.335c-3 0-5.454-2.4-5.454-5.335S9 2.665 12 2.665c3 0 5.454 2.4 5.454 5.335S15 13.335 12 13.335zM12 4.8c-1.8 0-3.273 1.441-3.273 3.2 0 1.759 1.473 3.2 3.273 3.2s3.273-1.441 3.273-3.2c0-1.759-1.473-3.2-3.273-3.2z"/></symbol><symbol viewBox="0 0 24 20" id="eye-off" xmlns="http://www.w3.org/2000/svg"><path fill="#788195" fill-opacity=".497" d="M12.003 4.208c3.01 0 5.457 2.36 5.457 5.266 0 .682-.139 1.328-.39 1.927l3.186 3.073a12.475 12.475 0 0 0 3.744-5c-1.89-4.62-6.55-7.896-12.008-7.896a13.27 13.27 0 0 0-4.344.734l2.357 2.277a5.53 5.53 0 0 1 1.998-.38zm-10.91-2.87l2.49 2.402.504.484A12.434 12.434 0 0 0 0 9.474c1.885 4.62 6.545 7.896 12.003 7.896 1.692 0 3.304-.318 4.777-.886l.46.443L20.439 20l1.387-1.339L2.475 0 1.092 1.339zm6.03 5.818l1.693 1.63a2.905 2.905 0 0 0-.086.683c0 1.745 1.462 3.156 3.273 3.156.24 0 .482-.031.707-.083l1.692 1.63a5.532 5.532 0 0 1-2.4.557c-3.01 0-5.457-2.36-5.457-5.265 0-.823.22-1.6.578-2.308zm4.703-.817l3.438 3.317.022-.166c0-1.745-1.462-3.157-3.273-3.157l-.187.006z"/></symbol></svg>